<svg id="Group_3" data-name="Group 3" xmlns="http://www.w3.org/2000/svg" xmlns:xlink="http://www.w3.org/1999/xlink" width="255.246" height="61.303" viewBox="0 0 255.246 61.303">
  <defs>
    <clipPath id="clip-path">
      <rect id="Rectangle_1841" data-name="Rectangle 1841" width="255.246" height="61.303" fill="none"/>
    </clipPath>
  </defs>
  <text id="G" transform="translate(52.155 53.093)" fill="#7cdd0a" font-size="12" font-family="JosefinSans-Bold, Josefin Sans" font-weight="700"><tspan x="0" y="0">G</tspan></text>
  <text id="U" transform="translate(62.57 53.093)" fill="#7cdd0a" font-size="12" font-family="JosefinSans-Bold, Josefin Sans" font-weight="700"><tspan x="0" y="0">U</tspan></text>
  <text id="L" transform="translate(72.639 52.093)" fill="#7cdd0a" font-size="11" font-family="JosefinSans-Bold, Josefin Sans" font-weight="700"><tspan x="0" y="0">L</tspan></text>
  <text id="F-" transform="translate(81.442 53.093)" fill="#7cdd0a" font-size="12" font-family="JosefinSans-Bold, Josefin Sans" font-weight="700"><tspan x="0" y="0" letter-spacing="0.02em">F</tspan><tspan y="0">-</tspan></text>
  <text id="T" transform="translate(94.041 53.093)" fill="#7cdd0a" font-size="12" font-family="JosefinSans-Bold, Josefin Sans" font-weight="700"><tspan x="0" y="0">T</tspan></text>
  <text id="A" transform="translate(101.886 53.093)" fill="#7cdd0a" font-size="12" font-family="JosefinSans-Bold, Josefin Sans" font-weight="700"><tspan x="0" y="0">A</tspan></text>
  <text id="D" transform="translate(111.688 53.093)" fill="#7cdd0a" font-size="12" font-family="JosefinSans-Bold, Josefin Sans" font-weight="700"><tspan x="0" y="0">D</tspan></text>
  <text id="A-2" data-name="A" transform="translate(122.209 53.093)" fill="#7cdd0a" font-size="12" font-family="JosefinSans-Bold, Josefin Sans" font-weight="700"><tspan x="0" y="0">A</tspan></text>
  <text id="W" transform="translate(131.013 53.093)" fill="#7cdd0a" font-size="12" font-family="JosefinSans-Bold, Josefin Sans" font-weight="700"><tspan x="0" y="0">W</tspan></text>
  <text id="U-2" data-name="U" transform="translate(145.17 53.093)" fill="#7cdd0a" font-size="12" font-family="JosefinSans-Bold, Josefin Sans" font-weight="700"><tspan x="0" y="0">U</tspan></text>
  <text id="L.COM" transform="translate(155.239 52.093)" fill="#7cdd0a" font-size="11" font-family="JosefinSans-Bold, Josefin Sans" font-weight="700"><tspan x="0" y="0" letter-spacing="0.02em">L</tspan><tspan y="0" letter-spacing="0.019em">.</tspan><tspan y="0" letter-spacing="0.02em">CO</tspan><tspan y="0">M</tspan></text>
  <rect id="Rectangle_1833" data-name="Rectangle 1833" width="4.355" height="5.471" transform="translate(24.092 35.094)" fill="#fff"/>
  <rect id="Rectangle_1834" data-name="Rectangle 1834" width="4.355" height="5.471" transform="translate(30.212 35.094)" fill="#fff"/>
  <rect id="Rectangle_1835" data-name="Rectangle 1835" width="5.579" height="5.795" transform="translate(60.411 5.075)" fill="#fff"/>
  <rect id="Rectangle_1836" data-name="Rectangle 1836" width="6.191" height="24.765" transform="translate(90.035 7.45)" fill="#fff"/>
  <g id="Group_2" data-name="Group 2">
    <g id="Group_1" data-name="Group 1" clip-path="url(#clip-path)">
      <path id="Path_8" data-name="Path 8" d="M302.809,53.148a9.776,9.776,0,0,1-3.977-3.33,7.912,7.912,0,0,1-1.4-4.5,91.3,91.3,0,0,1,1.188-9.791l5.8.324q-.324,2.2-.684,5.039t-.36,3.708a3.57,3.57,0,0,0,.63,2,4.583,4.583,0,0,0,1.8,1.548,5.759,5.759,0,0,0,2.645.594,5.315,5.315,0,0,0,2.682-.63,4.164,4.164,0,0,0,1.62-1.566,3.761,3.761,0,0,0,.522-1.836V20.7h6.191V45.355a8.4,8.4,0,0,1-1.224,4.337,9.161,9.161,0,0,1-3.672,3.384,12.247,12.247,0,0,1-5.867,1.314,13.379,13.379,0,0,1-5.885-1.242" transform="translate(-190.368 -13.248)" fill="#fff"/>
      <path id="Path_9" data-name="Path 9" d="M387.047,57.554a10.94,10.94,0,0,1-2.2,5.021q-1.854,2.5-5.885,2.5a42.962,42.962,0,0,1-6.839-.792V58.67a57.549,57.549,0,0,0,6.227.756,2.47,2.47,0,0,0,2.124-.756,4.308,4.308,0,0,0,.5-2.52h-3.455a8.667,8.667,0,0,1-5.237-1.332,6.076,6.076,0,0,1-2.322-3.186,14.852,14.852,0,0,1-.54-4.157,14.359,14.359,0,0,1,1.17-6.551,5.677,5.677,0,0,1,2.987-2.862,13,13,0,0,1,4.445-.666,39.483,39.483,0,0,1,5.039.324q2.519.324,4.319.72v13.93a38.518,38.518,0,0,1-.342,5.183M376.32,49.635a3.391,3.391,0,0,0,2.718.864h2.16V43.12q-1.153-.072-2.124-.072a5.765,5.765,0,0,0-1.655.216,2.31,2.31,0,0,0-1.26,1.1,5.339,5.339,0,0,0-.54,2.718,3.981,3.981,0,0,0,.7,2.556" transform="translate(-236.451 -23.936)" fill="#fff"/>
      <rect id="Rectangle_1837" data-name="Rectangle 1837" width="6.191" height="24.765" transform="translate(154.861 7.45)" fill="#fff"/>
      <path id="Path_10" data-name="Path 10" d="M486.721,37.961V50.307h-9.359V50.2a18.918,18.918,0,0,0-1.17-6.983,9.822,9.822,0,0,0-3.4-4.535,9.027,9.027,0,0,0-5.363-1.584,33.809,33.809,0,0,0-6.191.828l.468,4.931h4.139a4.738,4.738,0,0,1,3.672,1.764q1.547,1.764,1.656,5.687H459.725v5.651h33.187v-18Z" transform="translate(-294.246 -23.744)" fill="#fff"/>
      <rect id="Rectangle_1838" data-name="Rectangle 1838" width="4.355" height="5.471" transform="translate(190.424 5.398)" fill="#fff"/>
      <rect id="Rectangle_1839" data-name="Rectangle 1839" width="4.355" height="5.471" transform="translate(196.543 5.398)" fill="#fff"/>
      <path id="Path_11" data-name="Path 11" d="M78.841,20.7V39.812H70.958V32.9a7.965,7.965,0,0,0-.612-3.186,3.987,3.987,0,0,0-2.07-1.926,10.335,10.335,0,0,0-4.193-.684,42.083,42.083,0,0,0-4.931.342,29.5,29.5,0,0,0-4.679.882l.144,4h5.471q1.692,0,2.268-.036a2.3,2.3,0,0,1,1.944.648,3.63,3.63,0,0,1,.468,2.088v4.787H48.533V20.7H42.342V39.812H32.48V27.465H26.288V39.812H21.224L18,39.795V32.884a7.753,7.753,0,0,0-.63-3.186,4.075,4.075,0,0,0-2.088-1.926,10.231,10.231,0,0,0-4.157-.684,42.329,42.329,0,0,0-4.968.342,29.536,29.536,0,0,0-4.679.882l.18,4H7.128q1.655,0,2.232-.036a2.355,2.355,0,0,1,1.962.648,3.523,3.523,0,0,1,.486,2.087v5.183a43.548,43.548,0,0,0-4.715-.36q-3.887,0-5.849,2.088C-.066,43.311,0,54.254,0,56.749a9.568,9.568,0,0,0,2.2,6.605A7.726,7.726,0,0,0,8.28,65.82c.648,0,40.207.324,40.927.252L49.1,59.88c-1.128,0-41.193-.5-42.115-.5-.8,0-.828-1.3-.828-2.16,0-.936-.432-10.673.144-11.213a3.181,3.181,0,0,1,2.267-.81q.612,0,1.494.072t1.745.18l9.417.052,16.69-.036H85.032V20.7Z" transform="translate(0 -13.248)" fill="#fff"/>
      <rect id="Rectangle_1840" data-name="Rectangle 1840" width="4.356" height="5.183" transform="translate(13.247 35.258)" fill="#fff"/>
      <path id="Path_12" data-name="Path 12" d="M572.584,27.395,570,24.813a1.494,1.494,0,0,1,0-2.113L592.265.438a1.5,1.5,0,0,1,2.114,0l2.582,2.582a1.5,1.5,0,0,1,0,2.114L574.7,27.395a1.5,1.5,0,0,1-2.114,0" transform="translate(-364.549 0)" fill="#c6ff82"/>
      <path id="Path_13" data-name="Path 13" d="M616.008,28.607l-2.7-2.7a1.411,1.411,0,0,1,0-2L632.9,4.319a1.411,1.411,0,0,1,2,0l2.7,2.7a1.411,1.411,0,0,1,0,2L618,28.607a1.411,1.411,0,0,1-2,0" transform="translate(-392.282 -2.499)" fill="#9feb46"/>
      <path id="Path_14" data-name="Path 14" d="M612.142,66.215l-2.582-2.582a1.5,1.5,0,0,1,0-2.113l22.262-22.262a1.5,1.5,0,0,1,2.114,0l2.582,2.582a1.5,1.5,0,0,1,0,2.114L614.256,66.215a1.5,1.5,0,0,1-2.114,0" transform="translate(-389.868 -24.847)" fill="#7cdd0a"/>
      <path id="Path_15" data-name="Path 15" d="M596.666,109.237l-2.582-2.582a1.5,1.5,0,0,1,0-2.113l28.529-28.529a1.494,1.494,0,0,1,2.113,0l2.582,2.582a1.5,1.5,0,0,1,0,2.114L598.78,109.237a1.5,1.5,0,0,1-2.114,0" transform="translate(-379.962 -48.372)" fill="#78cc0b"/>
      <path id="Path_16" data-name="Path 16" d="M593.907,78.1l5.437-5.437-2.733-2.733-6.57,6.569V95.742h3.553l3.866-3.865h-3.554Z" transform="translate(-377.654 -44.756)" fill="#fff"/>
      <path id="Path_17" data-name="Path 17" d="M659.7,22.579l-3.865,3.865h8.325V61.573H648.779l-3.865,3.865h23.107V22.579Z" transform="translate(-412.775 -14.452)" fill="#fff"/>
    </g>
  </g>
</svg>
